# xmcd
#
# Track frame offsets:
#	182
#	2497
#	15475
#	25682
#	37605
#	53882
#	65955
#	79982
#	91990
#	103172
#	112925
#	123647
#
# Disc length: 1690 seconds
#
# Revision: 0
# Processed by: cddbd v1.4PL0 Copyright (c) Steve Scherf et al.
# Submitted via: EasyCDDAExtractor 4.6.0.1
#
DISCID=8d06980c
DTITLE=Vincent Malone - Le roi du mérengué
DYEAR=1900
DGENRE=Mérengué
TTITLE0=Final
TTITLE1=Le roi du mérengué
TTITLE2=Céssé, Céssé
TTITLE3=Gina, Diana, Rosita et Clementina
TTITLE4=D' un point de vue strictement logique
TTITLE5=Rosita, le rhum la sieste et moi
TTITLE6=Kiléle Kilélé
TTITLE7=Calypso cannibale
TTITLE8=Boire du bon lait de coco
TTITLE9=Rosita calypso
TTITLE10=belles pépees
TTITLE11=Bons amigos
EXTD=
EXTT0=
EXTT1=
EXTT2=
EXTT3=
EXTT4=
EXTT5=
EXTT6=
EXTT7=
EXTT8=
EXTT9=
EXTT10=
EXTT11=
PLAYORDER=
